<svg id="Layer_1" data-name="Layer 1" xmlns="http://www.w3.org/2000/svg" viewBox="0 0 117 30"><defs><style>.cls-1{fill:#4cd0fd;}</style></defs><title>logo</title><path d="M11.22,14h-8V22.2H0V2.75H3.19v8.36h8V2.75h3.19V22.2H11.22V14Z"/><path d="M29.08,9.25V22.2h-3V20.39a4.6,4.6,0,0,1-4.22,2.14,4.4,4.4,0,0,1-3.89-1.75,6.5,6.5,0,0,1-.83-3.83V9.25h3v6.69c0,2.22.64,3.92,2.81,3.92s3.11-1.69,3.11-3.92V9.25h3Z"/><path d="M48,22.2V14.95c0-2.05-.72-3.36-2.42-3.36-1.53,0-2.72.94-2.72,4V22.2h-3V14.92c0-2.05-.67-3.33-2.36-3.33-1.53,0-2.78.94-2.78,4V22.2h-3V9.25h3v1.81A3.94,3.94,0,0,1,38.3,8.92c2.36,0,3.53,1,4.08,2.31a4.34,4.34,0,0,1,4-2.31C50.24,8.92,51,11.59,51,14V22.2H48Z"/><path d="M66.87,9.25V22.2h-3V20.45a4.86,4.86,0,0,1-4,2.08,6.6,6.6,0,0,1-6.64-6.8,6.6,6.6,0,0,1,6.64-6.8,4.86,4.86,0,0,1,4,2.08V9.25h3Zm-3,6.47a3.82,3.82,0,1,0-7.61,0A3.82,3.82,0,1,0,63.85,15.72Z"/><path d="M75.18,28.94a6.7,6.7,0,0,1-4.3-1.33,5,5,0,0,1-1.78-4h3.05a2.86,2.86,0,0,0,3.06,2.78c1.86,0,3.17-.67,3.17-3.08v-3a4.6,4.6,0,0,1-4.22,2.14,4.4,4.4,0,0,1-3.89-1.75,6.51,6.51,0,0,1-.83-3.83V9.2h3v6.69c0,2.22.64,3.92,2.8,3.92s3.11-1.69,3.11-3.92V9.2h3V23.31a5.45,5.45,0,0,1-1.61,4.28A6.73,6.73,0,0,1,75.18,29V28.94Z"/><path d="M95.81,9.25V22.2h-3V20.39a4.6,4.6,0,0,1-4.22,2.14,4.4,4.4,0,0,1-3.89-1.75,6.5,6.5,0,0,1-.83-3.83V9.25h3v6.69c0,2.22.64,3.92,2.81,3.92s3.11-1.69,3.11-3.92V9.25h3Z"/><path d="M98.39,9.25h3v1.81a4.6,4.6,0,0,1,4.22-2.14,4.4,4.4,0,0,1,3.89,1.75,6.51,6.51,0,0,1,.83,3.83V22.2h-3V15.5c0-2.22-.64-3.92-2.8-3.92s-3.11,1.69-3.11,3.92V22.2h-3V9.25Z"/><path class="cls-1" d="M114.75,17.89a2.24,2.24,0,1,1-2.22,2.25A2.24,2.24,0,0,1,114.75,17.89Z"/></svg>